<svg width="18" height="18" viewBox="0 0 18 18" fill="none" xmlns="http://www.w3.org/2000/svg">
<path d="M16.6615 13.3341L11.8727 8.68042L16.5264 3.89164C17.0975 3.30402 17.0841 2.36436 16.4964 1.79331L15.4323 0.759151C14.8446 0.188101 13.905 0.201541 13.3339 0.789164L8.68021 5.57794L3.89143 0.92422C3.30381 0.35317 2.36415 0.36661 1.7931 0.954233L0.758935 2.01841C0.187884 2.60603 0.201324 3.54569 0.788947 4.11674L5.57772 8.77046L0.924004 13.5592C0.352954 14.1469 0.366394 15.0865 0.954016 15.6576L2.01819 16.6917C2.60581 17.2628 3.54547 17.2493 4.11652 16.6617L8.77024 11.8729L13.559 16.5267C14.1466 17.0977 15.0863 17.0843 15.6574 16.4966L16.6915 15.4325C17.2626 14.8449 17.2491 13.9052 16.6615 13.3341Z" fill="#D03135"/>
</svg>
