<svg width="19" height="19" viewBox="0 0 19 19" fill="none" xmlns="http://www.w3.org/2000/svg">
<path d="M12.1981 6.80202L12.1983 6.80221C14.3769 8.98302 14.3482 12.4788 12.216 14.6283C12.208 14.6366 12.2012 14.6434 12.1987 14.6459L12.1981 14.6465L9.96686 16.8777C7.80364 19.0409 4.28534 19.0407 2.12244 16.8778C-0.0408031 14.7149 -0.0408131 11.1962 2.12241 9.03328C2.12242 9.03327 2.12243 9.03326 2.12244 9.03325L3.35444 7.80124C3.98441 7.17128 5.0808 7.58273 5.11391 8.48868C5.1337 9.0298 5.23072 9.57266 5.40921 10.096L12.1981 6.80202ZM12.1981 6.80202C11.9674 6.57134 11.7169 6.36141 11.4494 6.17464L11.4493 6.17457C11.0422 5.89043 10.4844 5.93023 10.1262 6.28851L10.1261 6.28851L9.4271 6.9876C9.4271 6.9876 9.42709 6.9876 9.42709 6.98761C9.04575 7.36895 8.87455 7.86798 8.89259 8.34953L8.89261 8.34995M12.1981 6.80202L8.89261 8.34995M7.38145 14.2923L7.38148 14.2923L9.6127 12.0614C10.3528 11.3213 10.3501 10.1252 9.61304 9.38777C9.61302 9.38776 9.61301 9.38774 9.613 9.38773M7.38145 14.2923L9.613 9.38773M7.38145 14.2923C6.64023 15.0335 5.43009 15.029 4.6945 14.2789C3.97091 13.5409 3.98684 12.3397 4.7294 11.5971L5.16393 11.1626C5.44669 10.8798 5.53507 10.465 5.40922 10.0961L7.38145 14.2923ZM9.613 9.38773C9.51668 9.2916 9.418 9.21538 9.33986 9.16154M9.613 9.38773L9.33986 9.16154M9.33986 9.16154C9.20723 9.07046 9.09772 8.94965 9.02007 8.80874C8.94242 8.66783 8.89877 8.51072 8.89261 8.34995M9.33986 9.16154L8.89261 8.34995M6.8019 12.198L6.80171 12.1978C4.62315 10.017 4.65181 6.52119 6.78405 4.37177C6.79205 4.36337 6.79887 4.35657 6.80129 4.35416L6.80189 4.35356L9.03314 2.12231C11.1964 -0.0409181 14.7147 -0.0406224 16.8776 2.12231C19.0408 4.28519 19.0408 7.80388 16.8776 9.96673C16.8775 9.96674 16.8775 9.96675 16.8775 9.96676L15.6455 11.1988C15.0155 11.8288 13.9192 11.4172 13.8861 10.5113L13.8861 10.5113C13.8663 9.9702 13.7693 9.42735 13.5908 8.90398L6.8019 12.198ZM6.8019 12.198C7.03257 12.4287 7.28309 12.6386 7.55056 12.8254L7.55065 12.8254M6.8019 12.198L7.55065 12.8254M7.55065 12.8254C7.95779 13.1096 8.51559 13.0697 8.87381 12.7115L8.87382 12.7115M7.55065 12.8254L8.87382 12.7115M8.87382 12.7115L9.57287 12.0124C9.57288 12.0124 9.57288 12.0124 9.57288 12.0124C9.95422 11.6311 10.1254 11.132 10.1074 10.6505L10.1074 10.6501C10.1012 10.4893 10.0576 10.3322 9.9799 10.1913C9.90225 10.0504 9.79274 9.92954 9.66011 9.83847M8.87382 12.7115L9.66011 9.83847M9.66011 9.83847C9.58205 9.78469 9.48349 9.70856 9.38727 9.61257C8.64988 8.87519 8.64703 7.67884 9.38727 6.9386L11.6185 4.70771L11.6185 4.70768C12.3597 3.96647 13.5698 3.97097 14.3055 4.72114C15.0291 5.45908 15.0131 6.66035 14.2706 7.4029L14.2706 7.4029L13.836 7.83743C13.5533 8.12019 13.4649 8.53498 13.5908 8.90395L9.66011 9.83847Z" stroke="#D03135"/>
</svg>
