<svg width="47" height="57" viewBox="0 0 47 57" fill="none" xmlns="http://www.w3.org/2000/svg">
<path d="M23.4333 57C26.6554 57 29.2917 54.3692 29.2917 51.1538H17.575C17.575 54.3692 20.2112 57 23.4333 57ZM41.0083 39.4615V24.8462C41.0083 15.8723 36.2338 8.36 27.8271 6.37231V4.38462C27.8271 1.95846 25.8645 0 23.4333 0C21.0021 0 19.0396 1.95846 19.0396 4.38462V6.37231C10.6622 8.36 5.85833 15.8431 5.85833 24.8462V39.4615L0 45.3077V48.2308H46.8667V45.3077L41.0083 39.4615ZM35.15 42.3846H11.7167V24.8462C11.7167 17.5969 16.1397 11.6923 23.4333 11.6923C30.727 11.6923 35.15 17.5969 35.15 24.8462V42.3846Z" fill="#D03135"/>
</svg>
