<svg width="46" height="47" viewBox="0 0 46 47" fill="none" xmlns="http://www.w3.org/2000/svg">
<path d="M22.8 26.1832C29.8805 26.1832 35.625 20.4387 35.625 13.3582C35.625 6.27773 29.8805 0.533203 22.8 0.533203C15.7195 0.533203 9.975 6.27773 9.975 13.3582C9.975 20.4387 15.7195 26.1832 22.8 26.1832ZM34.2 29.0332H29.2927C27.3155 29.9416 25.1156 30.4582 22.8 30.4582C20.4844 30.4582 18.2934 29.9416 16.3073 29.0332H11.4C5.10328 29.0332 0 34.1365 0 40.4332V41.8582C0 44.2184 1.91484 46.1332 4.275 46.1332H41.325C43.6852 46.1332 45.6 44.2184 45.6 41.8582V40.4332C45.6 34.1365 40.4967 29.0332 34.2 29.0332Z" fill="#D03135"/>
</svg>
