<svg width="17" height="17" viewBox="0 0 17 17" fill="none" xmlns="http://www.w3.org/2000/svg">
<path d="M15.7526 6.33482H10.585V1.15179C10.585 0.515784 10.0708 0 9.4367 0H8.28835C7.65424 0 7.14 0.515784 7.14 1.15179V6.33482H1.97242C1.33831 6.33482 0.824066 6.85061 0.824066 7.48661V8.63839C0.824066 9.27439 1.33831 9.79018 1.97242 9.79018H7.14V14.9732C7.14 15.6092 7.65424 16.125 8.28835 16.125H9.4367C10.0708 16.125 10.585 15.6092 10.585 14.9732V9.79018H15.7526C16.3867 9.79018 16.901 9.27439 16.901 8.63839V7.48661C16.901 6.85061 16.3867 6.33482 15.7526 6.33482Z" fill="#D03135"/>
</svg>
