<svg width="31" height="31" viewBox="0 0 31 31" fill="none" xmlns="http://www.w3.org/2000/svg">
<path fill-rule="evenodd" clip-rule="evenodd" d="M25.9331 8.39224C25.9331 7.7245 26.1984 7.0841 26.6705 6.61194C27.1427 6.13977 27.7831 5.87451 28.4508 5.87451C29.1186 5.87451 29.759 6.13977 30.2311 6.61194C30.7033 7.0841 30.9686 7.7245 30.9686 8.39224V25.4314L28.4508 29.208L25.9331 25.4314V8.39224ZM28.4508 7.553C28.2283 7.553 28.0148 7.64142 27.8574 7.79881C27.7 7.9562 27.6116 8.16966 27.6116 8.39224V24.9228L28.4508 26.1817L29.2901 24.9228V8.39224C29.2901 8.16966 29.2017 7.9562 29.0443 7.79881C28.8869 7.64142 28.6734 7.553 28.4508 7.553Z" fill="#474342"/>
<path fill-rule="evenodd" clip-rule="evenodd" d="M30.1294 11.7493H26.7725V10.0708H30.1294V11.7493Z" fill="#474342"/>
<path fill-rule="evenodd" clip-rule="evenodd" d="M4.11235 1.67849C3.66718 1.67849 3.24025 1.85533 2.92548 2.1701C2.6107 2.48488 2.43386 2.91181 2.43386 3.35697V26.8558C2.43386 27.301 2.6107 27.7279 2.92548 28.0427C3.24025 28.3574 3.66718 28.5343 4.11235 28.5343H20.8972C21.3424 28.5343 21.7693 28.3574 22.0841 28.0427C22.3989 27.7279 22.5757 27.301 22.5757 26.8558V3.35697C22.5757 2.91181 22.3989 2.48488 22.0841 2.1701C21.7693 1.85533 21.3424 1.67849 20.8972 1.67849H4.11235ZM0.755371 3.35697C0.755371 2.46665 1.10905 1.61279 1.73861 0.983235C2.36816 0.35368 3.22202 0 4.11235 0H20.8972C21.7875 0 22.6414 0.35368 23.271 0.983235C23.9005 1.61279 24.2542 2.46665 24.2542 3.35697V26.8558C24.2542 27.7461 23.9005 28.6 23.271 29.2295C22.6414 29.8591 21.7875 30.2128 20.8972 30.2128H4.11235C3.22202 30.2128 2.36816 29.8591 1.73861 29.2295C1.10905 28.6 0.755371 27.7461 0.755371 26.8558V3.35697Z" fill="#474342"/>
<path fill-rule="evenodd" clip-rule="evenodd" d="M12.5042 7.55262C12.5042 7.33004 12.5926 7.11658 12.75 6.95919C12.9073 6.8018 13.1208 6.71338 13.3434 6.71338H20.0573C20.2799 6.71338 20.4934 6.8018 20.6508 6.95919C20.8082 7.11658 20.8966 7.33004 20.8966 7.55262C20.8966 7.7752 20.8082 7.98867 20.6508 8.14606C20.4934 8.30345 20.2799 8.39187 20.0573 8.39187H13.3434C13.1208 8.39187 12.9073 8.30345 12.75 8.14606C12.5926 7.98867 12.5042 7.7752 12.5042 7.55262Z" fill="#474342"/>
<path fill-rule="evenodd" clip-rule="evenodd" d="M12.5042 10.91C12.5042 10.6875 12.5926 10.474 12.75 10.3166C12.9073 10.1592 13.1208 10.0708 13.3434 10.0708H20.0573C20.2799 10.0708 20.4934 10.1592 20.6508 10.3166C20.8082 10.474 20.8966 10.6875 20.8966 10.91C20.8966 11.1326 20.8082 11.3461 20.6508 11.5035C20.4934 11.6609 20.2799 11.7493 20.0573 11.7493H13.3434C13.1208 11.7493 12.9073 11.6609 12.75 11.5035C12.5926 11.3461 12.5042 11.1326 12.5042 10.91Z" fill="#474342"/>
<path fill-rule="evenodd" clip-rule="evenodd" d="M12.5042 18.4633C12.5042 18.2407 12.5926 18.0272 12.75 17.8698C12.9073 17.7124 13.1208 17.624 13.3434 17.624H20.0573C20.2799 17.624 20.4934 17.7124 20.6508 17.8698C20.8082 18.0272 20.8966 18.2407 20.8966 18.4633C20.8966 18.6859 20.8082 18.8993 20.6508 19.0567C20.4934 19.2141 20.2799 19.3026 20.0573 19.3026H13.3434C13.1208 19.3026 12.9073 19.2141 12.75 19.0567C12.5926 18.8993 12.5042 18.6859 12.5042 18.4633Z" fill="#474342"/>
<path fill-rule="evenodd" clip-rule="evenodd" d="M12.5042 21.8202C12.5042 21.5976 12.5926 21.3842 12.75 21.2268C12.9073 21.0694 13.1208 20.981 13.3434 20.981H20.0573C20.2799 20.981 20.4934 21.0694 20.6508 21.2268C20.8082 21.3842 20.8966 21.5976 20.8966 21.8202C20.8966 22.0428 20.8082 22.2562 20.6508 22.4136C20.4934 22.571 20.2799 22.6594 20.0573 22.6594H13.3434C13.1208 22.6594 12.9073 22.571 12.75 22.4136C12.5926 22.2562 12.5042 22.0428 12.5042 21.8202Z" fill="#474342"/>
<path fill-rule="evenodd" clip-rule="evenodd" d="M5.79152 18.4631V20.9809H8.30925V18.4631H5.79152ZM4.95228 16.7847H9.14849C9.37108 16.7847 9.58454 16.8731 9.74193 17.0305C9.89932 17.1879 9.98774 17.4013 9.98774 17.6239V21.8201C9.98774 22.0427 9.89932 22.2562 9.74193 22.4135C9.58454 22.5709 9.37108 22.6594 9.14849 22.6594H4.95228C4.7297 22.6594 4.51623 22.5709 4.35885 22.4135C4.20146 22.2562 4.11304 22.0427 4.11304 21.8201V17.6239C4.11304 17.4013 4.20146 17.1879 4.35885 17.0305C4.51623 16.8731 4.7297 16.7847 4.95228 16.7847Z" fill="#474342"/>
<path fill-rule="evenodd" clip-rule="evenodd" d="M10.5794 6.95959C10.7368 7.11697 10.8252 7.33039 10.8252 7.55293C10.8252 7.77547 10.7368 7.9889 10.5794 8.14628L6.62912 12.0966L4.35729 9.82477C4.27713 9.74735 4.21319 9.65474 4.16921 9.55235C4.12523 9.44996 4.10207 9.33984 4.10111 9.2284C4.10014 9.11697 4.12137 9.00646 4.16357 8.90332C4.20577 8.80018 4.26808 8.70647 4.34688 8.62767C4.42568 8.54887 4.51939 8.48656 4.62253 8.44436C4.72567 8.40216 4.83618 8.38093 4.94761 8.3819C5.05905 8.38286 5.16917 8.40602 5.27156 8.45C5.37395 8.49398 5.46656 8.55792 5.54398 8.63807L6.62912 9.72322L9.39275 6.95959C9.55013 6.80225 9.76356 6.71387 9.9861 6.71387C10.2086 6.71387 10.4221 6.80225 10.5794 6.95959Z" fill="#474342"/>
</svg>
