<svg width="31" height="31" viewBox="0 0 31 31" fill="none" xmlns="http://www.w3.org/2000/svg">
<g clip-path="url(#clip0_682_24)">
<path d="M5.03531 7.55353H2.51758V25.1776C2.51758 26.5624 3.65056 27.6954 5.03531 27.6954H22.6594V25.1776H5.03531V7.55353ZM25.1772 2.51807H10.0708C8.68602 2.51807 7.55304 3.65105 7.55304 5.0358V20.1422C7.55304 21.5269 8.68602 22.6599 10.0708 22.6599H25.1772C26.5619 22.6599 27.6949 21.5269 27.6949 20.1422V5.0358C27.6949 3.65105 26.5619 2.51807 25.1772 2.51807ZM23.9183 13.8479H11.3296V11.3301H23.9183V13.8479ZM18.8828 18.8833H11.3296V16.3656H18.8828V18.8833ZM23.9183 8.81239H11.3296V6.29466H23.9183V8.81239Z" fill="#474342"/>
</g>
<defs>
<clipPath id="clip0_682_24">
<rect width="30.2128" height="30.2128" fill="white"/>
</clipPath>
</defs>
</svg>
