<svg width="31" height="31" viewBox="0 0 31 31" fill="none" xmlns="http://www.w3.org/2000/svg">
<g clip-path="url(#clip0_682_32)">
<path d="M30.7447 14.6344V15.5786C30.7447 16.1002 30.4067 16.5227 29.9894 16.5227H16.7713V18.8831H20.1703C21.0044 18.8831 21.6809 19.7287 21.6809 20.7714V28.3246C21.6809 29.3673 21.0044 30.2129 20.1703 30.2129H11.1065C10.2723 30.2129 9.59581 29.3673 9.59581 28.3246V20.7714C9.59581 19.7287 10.2723 18.8831 11.1065 18.8831H14.5054V16.5227H1.2873C0.869988 16.5227 0.531982 16.1002 0.531982 15.5786V14.6344C0.531982 14.1128 0.869988 13.6903 1.2873 13.6903H6.19688V11.3299H3.55326C2.7191 11.3299 2.04262 10.4843 2.04262 9.44161V1.88842C2.04262 0.845728 2.7191 0.000123978 3.55326 0.000123978H11.1065C11.9406 0.000123978 12.6171 0.845728 12.6171 1.88842V9.44161C12.6171 10.4843 11.9406 11.3299 11.1065 11.3299H8.46283V13.6903H22.8139V11.3299H20.1703C19.3361 11.3299 18.6596 10.4843 18.6596 9.44161V1.88842C18.6596 0.845728 19.3361 0.000123978 20.1703 0.000123978H27.7235C28.5576 0.000123978 29.2341 0.845728 29.2341 1.88842V9.44161C29.2341 10.4843 28.5576 11.3299 27.7235 11.3299H25.0799V13.6903H29.9894C30.4067 13.6903 30.7447 14.1128 30.7447 14.6344ZM12.6171 22.6597V26.4363H18.6596V22.6597H12.6171ZM9.59581 3.77672H5.0639V7.55332H9.59581V3.77672ZM26.2128 3.77672H21.6809V7.55332H26.2128V3.77672Z" fill="#474342"/>
</g>
<defs>
<clipPath id="clip0_682_32">
<rect width="30.2128" height="30.2128" fill="white" transform="translate(0.531982)"/>
</clipPath>
</defs>
</svg>
