<svg width="31" height="31" viewBox="0 0 31 31" fill="none" xmlns="http://www.w3.org/2000/svg">
<path d="M26.4447 20.5783C25.0961 19.1171 23.4597 17.9511 21.6383 17.1536C19.8169 16.3561 17.8501 15.9443 15.8618 15.9443C13.8735 15.9443 11.9067 16.3561 10.0854 17.1536C8.26399 17.9511 6.62751 19.1171 5.27896 20.5783C5.07076 20.8085 4.9543 21.1071 4.95166 21.4175V26.453C4.95607 26.7839 5.09065 27.0998 5.32626 27.3323C5.56186 27.5648 5.87954 27.6951 6.21053 27.695H25.5131C25.847 27.695 26.1672 27.5624 26.4033 27.3263C26.6394 27.0903 26.772 26.7701 26.772 26.4362V21.4007C26.7653 21.0961 26.6491 20.8042 26.4447 20.5783Z" fill="#474342"/>
<path d="M15.8618 14.2675C19.1063 14.2675 21.7365 11.6373 21.7365 8.39277C21.7365 5.14826 19.1063 2.51807 15.8618 2.51807C12.6173 2.51807 9.98706 5.14826 9.98706 8.39277C9.98706 11.6373 12.6173 14.2675 15.8618 14.2675Z" fill="#474342"/>
</svg>
