<svg width="16" height="16" viewBox="0 0 16 16" fill="none" xmlns="http://www.w3.org/2000/svg">
<circle cx="8" cy="8" r="7.73333" stroke="#D03135" stroke-width="0.533333"/>
<path d="M5.01811 10.9709H5.43353V7.96138H5.01811C4.78867 7.96138 4.60268 7.77483 4.60268 7.54471V6.54948C4.60268 6.31935 4.78867 6.13281 5.01811 6.13281H7.34448C7.57392 6.13281 7.75991 6.31935 7.75991 6.54948V10.9709H8.17533C8.40477 10.9709 8.59076 11.1575 8.59076 11.3876V12.3828C8.59076 12.6129 8.40477 12.7995 8.17533 12.7995H5.01811C4.78867 12.7995 4.60268 12.6129 4.60268 12.3828V11.3876C4.60268 11.1575 4.78867 10.9709 5.01811 10.9709ZM6.59672 2.13281C5.77075 2.13281 5.10119 2.80438 5.10119 3.63281C5.10119 4.46125 5.77075 5.13281 6.59672 5.13281C7.42269 5.13281 8.09225 4.46125 8.09225 3.63281C8.09225 2.80438 7.42267 2.13281 6.59672 2.13281Z" fill="#D03135"/>
</svg>
